<?xml version="1.0" encoding="UTF-8" standalone="no"?>
<!-- Created with Inkscape (http://www.inkscape.org/) -->

<svg
   width="53.186001mm"
   height="61.497002mm"
   viewBox="0 0 53.186001 61.497002"
   version="1.1"
   id="svg5"
   xml:space="preserve"
   inkscape:export-filename="toastOutline.svg"
   inkscape:export-xdpi="96"
   inkscape:export-ydpi="96"
   inkscape:version="1.2.2 (b0a84865, 2022-12-01)"
   sodipodi:docname="texastoast.svg"
   xmlns:inkscape="http://www.inkscape.org/namespaces/inkscape"
   xmlns:sodipodi="http://sodipodi.sourceforge.net/DTD/sodipodi-0.dtd"
   xmlns="http://www.w3.org/2000/svg"
   xmlns:svg="http://www.w3.org/2000/svg"><sodipodi:namedview
     id="namedview7"
     pagecolor="#ffffff"
     bordercolor="#000000"
     borderopacity="0.25"
     inkscape:showpageshadow="2"
     inkscape:pageopacity="0.0"
     inkscape:pagecheckerboard="0"
     inkscape:deskcolor="#d1d1d1"
     inkscape:document-units="mm"
     showgrid="false"
     inkscape:zoom="0.62245503"
     inkscape:cx="164.67053"
     inkscape:cy="349.42283"
     inkscape:window-width="1512"
     inkscape:window-height="945"
     inkscape:window-x="0"
     inkscape:window-y="37"
     inkscape:window-maximized="0"
     inkscape:current-layer="layer1" /><defs
     id="defs2" /><g
     inkscape:label="Layer 1"
     inkscape:groupmode="layer"
     id="layer1"><path
       style="fill:#ffffff;stroke-width:0.121332"
       d="m 8.1010934,61.292049 c -2.03325,-0.53593 -3.59046,-2.06138 -4.12926,-4.04505 -0.14267,-0.52524 -0.17134,-3.53504 -0.17256,-18.111391 l -0.001,-17.48146 -0.34587,-0.20025 c -0.55123,-0.31914 -1.64019,-1.45726 -2.08746,-2.1817 -0.60614002,-0.98177 -0.96526002,-1.93578 -1.17730002,-3.12752 -0.5969,-3.35477 0.21179,-5.89738 2.69145002,-8.4622499 1.60907,-1.66436 3.40952,-2.88837 6.12787,-4.16594 11.7999396,-5.545709 30.2195496,-4.39114898 39.3995996,2.46962 1.76561,1.31954 3.26139,3.06244 4.05537,4.7253799 1.19735,2.50779 0.87968,6.25821 -0.73705,8.70168 -0.49204,0.74364 -1.45735,1.73178 -1.99826,2.0455 l -0.33703,0.19548 -10e-4,17.48146 c -10e-4,14.576351 -0.0299,17.586151 -0.17255,18.111391 -0.54577,2.00931 -2.10647,3.52116 -4.18187,4.05098 -1.05565,0.26949 -35.9084896,0.2639 -36.9321696,-0.006 z m 36.4470496,-3.77408 c 0.32272,-0.15312 0.60344,-0.40955 0.77404,-0.70704 l 0.26768,-0.46679 0.003,-18.061581 c 0.003,-17.35416 0.0116,-18.08086 0.23083,-18.55394 0.24395,-0.52648 0.73829,-0.94213 1.27854,-1.07503 0.43545,-0.10711 1.34242,-0.97794 1.66602,-1.59961 0.42586,-0.81814 0.64987,-2.00599 0.59567,-3.15854 -0.0425,-0.90288 -0.10856,-1.15857 -0.50047,-1.93577 -1.49177,-2.9583299 -6.10968,-5.6663399 -12.10997,-7.1014799 -6.9014,-1.65064 -15.20146,-1.49425 -21.87902,0.41227 -5.1620096,1.47381 -9.2117496,4.03314 -10.5336796,6.6570199 l -0.48138,0.95548 0.009,1.44681 c 0.008,1.19333 0.0567,1.56576 0.28009,2.12578 0.38048,0.9537 0.98871,1.68458 1.68983,2.03058 0.99554,0.49129 1.28744,0.72907 1.52534,1.24249 0.21921,0.47308 0.22825,1.19978 0.23084,18.55394 l 0.003,18.061581 0.25841,0.45064 c 0.14213,0.24785 0.45925,0.56478 0.7047,0.70428 l 0.44629,0.25364 17.5176496,0.003 c 17.27036,0.003 17.52478,-4.5e-4 18.02399,-0.23749 z m -19.8543,-15.796051 c -1.75259,-0.32458 -3.30207,-1.03715 -4.76219,-2.18999 -1.26646,-0.99995 -1.5607,-1.80127 -1.02559,-2.79305 0.32358,-0.59972 0.91918,-0.96247 1.58031,-0.96247 0.64756,0 1.02229,0.16976 1.73877,0.78768 2.46337,2.12454 6.33894,2.1217 8.75395,-0.006 0.33394,-0.29427 0.75584,-0.59044 0.93757,-0.65816 0.50551,-0.18837 1.1917,-0.14718 1.66145,0.0997 0.46939,0.24673 0.9816,1.0672 0.9816,1.57237 0,1.56072 -3.28437,3.72824 -6.37298,4.20584 -1.05166,0.16263 -2.43347,0.14065 -3.49289,-0.0556 z m -6.86321,-12.17207 c -1.82366,-0.85761 -2.22653,-3.20382 -0.78095,-4.54805 0.55296,-0.51419 1.18883,-0.75738 1.97195,-0.75419 0.82574,0.003 1.50667,0.30859 2.08082,0.93273 1.14559,1.24535 0.87262,3.13804 -0.59876,4.15159 -0.67673,0.46617 -1.92822,0.5682 -2.67306,0.21792 z m 15.39898,0.083 c -0.56891,-0.1605 -1.5589,-1.15946 -1.72297,-1.73859 -0.29351,-1.03606 -0.0905,-1.98731 0.57944,-2.71563 1.7495,-1.90186 4.91939,-0.72327 4.91939,1.82906 0,1.54261 -1.24968,2.78018 -2.77886,2.75191 -0.32235,-0.006 -0.771,-0.063 -0.997,-0.12675 z"
       id="path10776" /></g></svg>
